<svg viewBox="0 0 320 120" xmlns="http://www.w3.org/2000/svg" focusable="false">
	<title>Crocs™</title>
	<defs><style>path,polygon{fill:#000000;}</style></defs>
	<path d="M53.7,47.6c3.8,0,7.4,2,9.4,4.8c0.1,0.1,0.1,0.1,0.2,0.2c0.1,0.1,0.2,0.2,0.2,0.3l0,0c1.3,1.7,3.4,2.7,5.7,2.7c4,0,7.3-3.3,7.3-7.3c0-1.9-0.7-3.6-1.9-4.9c-5-6.2-11-9.8-21-9.8c-15.7,0-27.5,10.9-27.5,26.2c0,15.5,11.8,26.4,27.6,26.4c10.1,0,16-3.5,21-9.1l0,0c1.1-1.3,1.8-2.9,1.8-4.7c0-4-3.2-7.2-7.2-7.2c-2.2,0-4.1,1-5.4,2.5c-2.4,2.4-5.1,4.7-10.1,4.7c-7.2,0-11.3-5.2-11.3-12.6C42.4,52.7,46.4,47.6,53.7,47.6"/>
	<path d="M121.8,36.9c-2.5-1.3-4.2-1.6-7.9-1.3c-6.6,0.6-11.7,5.2-12.6,6.3v0.3c0-0.1,0-0.2,0-0.3l0,0l0,0c-0.3-4.2-3.8-7.6-8.1-7.6c-4.5,0-8.1,3.6-8.2,8V78c0.1,4.4,3.7,7.9,8.2,7.9s8.1-3.6,8.2-8v-9.7c0-13.2,7.7-16.6,12-16.7c1.1,0,4,1.1,6.3,0.7c4.5-0.8,7.4-5.1,6.6-9.5C125.7,40.1,124,38,121.8,36.9"/>
	<path d="M157.6,72.8c7.1,0,11.3-5.2,11.4-12.7c0-7.6-4.3-12.7-11.4-12.7s-11.5,5.1-11.5,12.7C146.1,67.5,150.5,72.8,157.6,72.8 M157.6,33.6c15.6,0,27.7,11,27.7,26.4c0,15.3-12.1,26.2-27.7,26.2S129.8,75.3,129.8,60C129.8,44.6,142,33.6,157.6,33.6"/>
	<path d="M221.3,47.6c3.8,0,7.4,2,9.4,4.8c0.1,0.1,0.1,0.1,0.2,0.2c0.1,0.1,0.2,0.2,0.2,0.3l0,0c1.3,1.7,3.4,2.7,5.7,2.7c4,0,7.3-3.3,7.3-7.3c0-1.9-0.7-3.6-1.9-4.9c-5-6.2-11-9.8-20.9-9.8c-15.7,0-27.6,10.9-27.6,26.2c0,15.5,11.8,26.4,27.6,26.4c10.1,0,16-3.5,21-9.1l0,0c1.1-1.3,1.8-2.9,1.8-4.7c0-4-3.2-7.2-7.2-7.2c-2.2,0-4.1,1-5.4,2.5c-2.4,2.4-5.1,4.7-10.2,4.7c-7.2,0-11.3-5.2-11.3-12.6C210.1,52.7,214.1,47.6,221.3,47.6"/>
	<path d="M277.4,53.6c7.3,1.7,16.5,5.1,16.5,15.9c0,9.2-4.8,16.8-20.7,16.8c-9.7,0-16-3-20.4-6.9c-0.1-0.1-0.2-0.2-0.3-0.3c-0.2-0.1-0.3-0.3-0.4-0.4s-0.2-0.3-0.3-0.4c-0.2-0.2-0.3-0.4-0.4-0.6c0,0-0.1-0.1-0.1-0.2c-1.3-2.4-1-5.4,1-7.4c2.4-2.5,6.4-2.6,8.9-0.3l0,0l-0.1-0.1c3.2,2.5,7,4,11.1,4c5.2,0,6.9-1,6.9-3.1c0-2.8-3.2-2.8-11.4-4.9c-6.9-1.8-14.6-5.6-14.6-16.1c0-11.4,8.7-16,19.5-16c8.3,0,14.2,2.7,18.3,6.9c1.3,1.1,2.1,2.8,2.1,4.6c0,3.5-2.8,6.3-6.3,6.3c-1.7,0-3.2-0.6-4.3-1.7l0,0c-2.4-2-5.9-3.8-9.7-3.8c-3.6,0-5.4,1-5.4,3C267.3,51.7,270.5,52.1,277.4,53.6"/>
	<polygon points="299.3,36.1 299.3,34.8 294,34.8 294,36.1 295.9,36.1 295.9,41.3 297.5,41.3 297.5,36.1 "/>
	<polygon points="306.2,41.3 306.2,36.7 306.2,36.7 304.5,41.3 303.4,41.3 301.7,36.7 301.7,36.7 301.7,41.3 300.2,41.3 300.2,34.8 302.4,34.8 304,39.1 305.6,34.8 307.7,34.8 307.7,41.3 "/>
</svg>
